<?xml version="1.0" encoding="utf-8"?>
<!-- Generator: Adobe Illustrator 19.1.0, SVG Export Plug-In . SVG Version: 6.00 Build 0)  -->
<svg version="1.1" id="Layer_1" xmlns="http://www.w3.org/2000/svg" xmlns:xlink="http://www.w3.org/1999/xlink" x="0px" y="0px"
	 width="40px" height="40px" viewBox="0 0 40 40" enable-background="new 0 0 40 40" xml:space="preserve">
<rect fill="#ECEAEA" width="40" height="40"/>
<path fill="#CECAC8" d="M33.6,29.8c-1.2-1.2-6.2-2.7-7.5-3.2c-1.3-0.4-1-0.7-1-1.8v-0.8c0.7-0.1,1-0.2,1.8-1.6c0.8-1.4,0.6-3,0.6-3
	s-0.1-2.8-0.4-6.2c-0.3-3.4-1.8-3.5-1.8-3.5S23.7,7.1,20,7.1s-5.2,2.5-5.2,2.5s-1.5,0.1-1.8,3.5c-0.3,3.4-0.4,6.2-0.4,6.2
	s-0.2,1.6,0.6,3c0.8,1.4,1.1,1.5,1.8,1.6v0.8c0,1.1,0.2,1.4-1,1.8c-1.3,0.5-6.4,1.9-7.5,3.2c-1,1-1.1,1.8-1.1,6.9V40h1.5v-3.4
	c0-4.8,0.1-5.2,0.7-5.8c0.7-0.7,4.5-2,5.8-2.4c0.1-0.1,0.3-0.1,0.4-0.1l6.4,6.4l6.4-6.4c0.1,0.1,0.3,0.1,0.4,0.1
	c1.3,0.4,5.1,1.7,5.8,2.4c0.6,0.6,0.7,1,0.7,5.8V40h1.5v-3.4C34.8,31.6,34.7,30.8,33.6,29.8z M20,32.6l-4.9-4.9
	c1.2-0.6,1.4-1.4,1.3-2.6c0-0.1,0-0.1,0-0.1c1,0.9,2.3,1.5,3.8,1.5s2.7-0.7,3.5-1.5c0,0,0,0,0,0.1c0,1.2,0.2,2,1.3,2.6L20,32.6z
	 M24.8,19.9c-0.1,0.3-0.4,0.7-0.4,0.7s-0.2,1.1-0.7,2.1c-0.4,1-1.9,2.4-3.7,2.4c-1.8,0-3-1.3-3.8-2.4c-0.7-0.9-0.7-1.8-0.8-2.1
	c-0.1-0.3,0-0.2-0.1-0.5c-0.1-0.3-0.1-0.2-0.3-0.3c-0.1-0.1-0.3-0.8-0.4-1.4c-0.1-0.6-0.1-1.6-0.1-1.6c0.1,0,0.4,0,0.5-0.1
	c0,0,0.5-0.7,0.5-1.8c0-0.7,0.3-1.2,1.1-1.8c0.6-0.4,1.3-0.5,1.7-0.5c0.1,0,0.3,0,0.3,0s1,1,1.6,1.4c0.9,0.7,1.6,1.1,1.6,1.1
	l-0.7-1.3c0,0,0.4,0.4,0.7,0.7c0.2,0.3,1.1,0.8,1.1,0.8l-0.5-1c0,0,0.3,0.3,0.7,0.6c0.4,0.4,0.8,0.4,0.8,0.4l-1-1.2
	c0,0,0.4,0.1,0.7,0.1c0.2,0,0.4,0,0.5-0.1c0.4-0.1,0.7-0.3,1-0.6c0,0,0-0.1,0.1-0.1s-0.1,0.8-0.1,1.4c0,0.7-0.1,1.6,0.1,1.8
	c0.2,0.1,0.4,0.1,0.5,0.1c0,0-0.1,1-0.1,1.6c-0.1,0.6-0.3,1.2-0.4,1.3C24.9,19.7,24.9,19.6,24.8,19.9z"/>
</svg>
